<?xml version="1.0" encoding="UTF-8"?>
<svg width="420px" height="315px" viewBox="0 0 420 315" version="1.1" xmlns="http://www.w3.org/2000/svg" xmlns:xlink="http://www.w3.org/1999/xlink">
    <title>Group 78</title>
    <defs>
        <polygon id="path-1" points="0 0 41 0 41 9 0 9"></polygon>
        <polygon id="path-3" points="0 0 37 0 37 32 0 32"></polygon>
        <polygon id="path-5" points="0 315 420 315 420 0 0 0"></polygon>
    </defs>
    <g id="Página---Contacto" stroke="none" stroke-width="1" fill="none" fill-rule="evenodd">
        <g id="Home-index-Copy" transform="translate(-193.000000, -926.000000)">
            <g id="Group-78" transform="translate(193.000000, 926.000000)">
                <g id="Group-3" transform="translate(248.000000, 306.000000)">
                    <mask id="mask-2" fill="white">
                        <use xlink:href="#path-1"></use>
                    </mask>
                    <g id="Clip-2"></g>
                    <path d="M0,4.50028354 C0,6.98519312 9.17875436,9.00056707 20.5,9.00056707 C31.8212456,9.00056707 41,6.98519312 41,4.50028354 C41,2.01537395 31.8212456,0 20.5,0 C9.17875436,0 0,2.01537395 0,4.50028354" id="Fill-1" fill="#DBC3AF" mask="url(#mask-2)"></path>
                </g>
                <g id="Group-6" transform="translate(259.000000, 283.000000)">
                    <mask id="mask-4" fill="white">
                        <use xlink:href="#path-3"></use>
                    </mask>
                    <g id="Clip-5"></g>
                    <path d="M0.47270681,0 C0.47270681,0 -4.6223863,30.8493308 18.6425214,31.972494 C41.9063261,33.0956572 36.4417036,0 36.4417036,0 L0.47270681,0 Z" id="Fill-4" fill="#FFFFFF" mask="url(#mask-4)"></path>
                </g>
                <path d="M290.201475,295.796732 C290.088587,299.545942 293.048874,302.686906 296.798279,302.798692 C300.545491,302.910478 303.687713,299.95144 303.799505,296.20223 C303.911297,292.454115 300.953202,289.313152 297.203797,289.20027 C293.454393,289.08958 290.313266,292.048618 290.201475,295.796732 M287.004453,295.701385 C287.168852,290.191 291.787382,285.840118 297.299149,286.004509 C302.80982,286.169996 307.160927,290.787191 306.995431,296.298673 C306.832128,301.809058 302.213598,306.158844 296.702927,305.995549 C291.190064,305.830062 286.841149,301.211771 287.004453,295.701385" id="Fill-7" fill="#FFFFFF"></path>
                <path d="M258,282.999519 C258,284.104062 266.283243,285 276.5,285 C286.717891,285 295,284.104062 295,282.999519 C295,281.895938 286.717891,281 276.5,281 C266.283243,281 258,281.895938 258,282.999519" id="Fill-9" fill="#432F64"></path>
                <path d="M337.830827,149.168327 C340.032462,141.593611 334.442068,134 326.666743,134 L342.353255,134 C350.12858,134 355.71786,141.593611 353.516225,149.168327 L318.686512,269 L303,269 L337.830827,149.168327 Z" id="Fill-11" fill="#3B1400"></path>
                <path d="M337.519042,149.168327 L302.886271,269 L181,269 L217.56721,142.475012 C219.01887,137.448913 223.536621,134 228.667812,134 L326.41844,134 C334.149553,134 339.708158,141.593611 337.519042,149.168327" id="Fill-13" fill="#FF5900"></path>
                <path d="M198,147 C198,147 178.812995,150.942368 167.593904,165.749963 C156.374812,180.557558 142,209.139173 142,209.139173 L158.828637,236 L183.962098,203.974605 L198,147 Z" id="Fill-15" fill="#9267DC"></path>
                <polygon id="Fill-17" fill="#432F64" points="183 205.343188 178.830886 193 167 226"></polygon>
                <path d="M184.180859,204.496722 C185.703776,205.737068 188.75957,248.307388 181,261 L261.135742,261 L283,218.048979 L262.513672,153.075401 C262.513672,153.075401 253.441471,147.445281 237.790625,144 L203.019206,149.483869 L198.014388,146.832365 L182.978906,173.55283 L184.180859,204.496722 Z" id="Fill-19" fill="#9267DC"></path>
                <path d="M182.834816,174 C182.834816,174 170.918428,194.029923 184.50162,216.449269 C198.083666,238.867519 201,186.137918 201,186.137918 L182.834816,174 Z" id="Fill-21" fill="#9267DC"></path>
                <path d="M211.092545,241 L193.362854,241 C190.350112,241 187.568175,242.477158 186.072953,244.870244 L176,261 L190.869704,261 L195.893915,254.876978 C195.893915,254.876978 211.822874,262.087664 218,251 L211.092545,241 Z" id="Fill-23" fill="#F0B28B"></path>
                <path d="M268.557042,226.940626 C260.641212,212.675368 242.104709,180.003362 242.104709,180.003362 L261.520873,153 C261.520873,153 273.319265,156.044334 282.007588,172.656843 C289.908905,187.763254 309.915602,222.314835 307.851525,246.76038 C307.487605,251.079189 304.42777,254.753003 300.209195,255.872325 C273.402989,262.989439 214.643224,260.622239 214.643224,260.622239 L208,238.129412 L268.557042,226.940626 Z" id="Fill-25" fill="#9267DC"></path>
                <polygon id="Fill-27" fill="#432F64" points="208.954972 241 209.8978 240.718089 209.24864 238.462804 278 224.981633 277.814526 224 208 237.688953"></polygon>
                <polygon id="Fill-29" fill="#432F64" points="250 194 258.679245 229 269 227.391218"></polygon>
                <path d="M242.389646,81.4408854 C242.389646,81.4408854 243.895947,89.9497396 250.926832,96.1941406 C256.879722,101.480078 267.814306,118.405924 264.3289,139.530859 L172.881782,144 C170.901565,139.57513 164.495894,134.716406 174.332459,116.008659 C178.205008,108.643099 177.070276,95.4371094 177.070276,95.4371094 L182.720572,81.0048177 L218.868443,76 L242.389646,81.4408854 Z" id="Fill-31" fill="#743000"></path>
                <path d="M197.959728,107.67834 C198.412643,112.350985 194.993361,116.505693 190.320717,116.959728 C185.649193,117.412643 181.493364,113.993361 181.04045,109.320717 C180.586414,104.648072 184.006817,100.493364 188.67834,100.04045 C193.350985,99.5864138 197.505693,103.006817 197.959728,107.67834" id="Fill-33" fill="#D8906C"></path>
                <path d="M227.108724,115 L229.936418,144.81934 C230.647925,151.686811 225.291576,150.943242 218.697825,151.832195 L210.305257,152.964196 C208.025229,153.270502 205.911333,151.57694 205.618023,149.206398 L203,128.032435 L227.108724,115 Z" id="Fill-35" fill="#F0B28B"></path>
                <polygon id="Fill-37" fill="#D8906C" points="225 124 204.295898 142 202 124.548287"></polygon>
                <path d="M182,91.0988924 L185.38525,114.828117 C186.550973,122.998347 192.275425,128.398329 199.802758,130.334151 C204.696134,131.592273 209.899778,131 214.581507,129.125748 L227,124.154868 L224.635311,93.9880342 L207.211524,83 L182,91.0988924 Z" id="Fill-39" fill="#F0B28B"></path>
                <path d="M234.555567,99.775775 C234.23997,101.42124 206.961912,94.0948089 205,75 C205,75 239.26459,75.2744372 234.555567,99.775775" id="Fill-41" fill="#743000"></path>
                <path d="M243,81.2140155 C240.744784,69.4567924 230.888572,57.1425047 204.242548,60.5884558 C189.847175,62.4504249 172.938027,77.047478 177.876077,94.319749 C178.004252,94.7667088 178.122482,95 178.122482,95 C196.366418,94.8179456 212.81922,83.4161101 212.81922,83.4161101 L243,81.2140155 Z" id="Fill-43" fill="#743000"></path>
                <polygon id="Fill-45" fill="#743000" points="220 89 222.573822 107 234 91.5454205"></polygon>
                <path d="M237.959692,104.678326 C238.412871,109.350676 234.992739,113.505454 230.321181,113.959695 C225.649622,114.412844 221.493486,110.992933 221.040308,106.320582 C220.587129,101.649324 224.007261,97.4934543 228.678819,97.040305 C233.350378,96.5871558 237.506514,100.007067 237.959692,104.678326" id="Fill-47" fill="#F0B28B"></path>
                <path d="M222.034991,141 L241,145.035332 C241,145.035332 234.649418,159 213.524728,159 C196.823706,159 195,147.841542 195,147.841542 L207.199399,142.310493 L222.034991,141 Z" id="Fill-49" fill="#F0B28B"></path>
                <path d="M235.994989,270 L165,270 L165,261 L235.994989,261 C238.206529,261 240,263.013881 240,265.498751 C240,267.98487 238.206529,270 235.994989,270" id="Fill-51" fill="#484747"></path>
                <path d="M175,269 L73.2848759,269 C67.8779555,269 63.1334466,265.401391 61.6832425,260.202292 L44.4061734,194.550106 C42.7884246,188.746255 46.1304407,183 52.1664856,183 L146.226706,183 C149.836128,183 152.991737,185.430086 153.909349,188.914611 L175,269 Z" id="Fill-53" fill="#282726"></path>
                <path d="M111,227.999438 C111,232.970267 106.970267,237 101.999438,237 C97.0286089,237 93,232.970267 93,227.999438 C93,223.029733 97.0286089,219 101.999438,219 C106.970267,219 111,223.029733 111,227.999438" id="Fill-55" fill="#E5DBF7"></path>
                <mask id="mask-6" fill="white">
                    <use xlink:href="#path-5"></use>
                </mask>
                <g id="Clip-58"></g>
                <polygon id="Fill-57" fill="#FFD9C4" mask="url(#mask-6)" points="0 269 371 269 371 268 0 268"></polygon>
                <polygon id="Fill-59" fill="#FFD9C4" mask="url(#mask-6)" points="388 269 420 269 420 268 388 268"></polygon>
                <path d="M63.4132975,106 L128.586702,106 C129.919931,106 131,104.893695 131,103.528082 L131,83.4719177 C131,82.1063049 129.919931,81 128.586702,81 L63.4132975,81 C62.0800695,81 61,82.1063049 61,83.4707854 L61,103.528082 C61,104.893695 62.0800695,106 63.4132975,106" id="Fill-60" fill="#FF5900" mask="url(#mask-6)"></path>
                <polygon id="Fill-61" fill="#FFD9C4" mask="url(#mask-6)" points="78 89.9275 120 89.9275 120 89.0725 78 89.0725"></polygon>
                <polygon id="Fill-62" fill="#FFD9C4" mask="url(#mask-6)" points="101 96.9275 120 96.9275 120 96.0725 101 96.0725"></polygon>
                <polygon id="Fill-63" fill="#FF5900" mask="url(#mask-6)" points="122 104 122 113 110 104"></polygon>
                <path d="M278.416687,61 L326.536346,61 C331.210419,61 335,57.122505 335,52.3399989 L335,6.56554673 C335,2.9387567 332.127873,0 328.583313,0 L278.416687,0 C274.872127,0 272,2.9387567 272,6.56554673 L272,54.4355775 C272,58.0601191 274.872127,61 278.416687,61" id="Fill-64" fill="#432F64" mask="url(#mask-6)"></path>
                <path d="M291.464088,35.1761519 L295.025113,31.6379806 C295.214889,31.4494227 295.532273,31.1958447 295.850747,31.1958447 C296.232481,31.1958447 296.550955,31.4494227 296.741822,31.6379806 L298.966781,33.849744 C299.476122,34.3547326 300.11198,34.4815216 300.747839,34.165091 L300.811097,34.1022383 C301.001964,33.976533 301.192831,33.9125967 301.446956,33.7868914 C301.701081,33.6601024 302.019556,33.5333134 302.273681,33.3447554 C304.372123,32.0172639 306.279698,30.3115728 308.059665,28.1008931 C309.013998,26.8362543 309.713115,25.826277 310.158107,24.6884272 L310.158107,24.6255745 C310.285715,24.2462912 310.412232,23.6773663 309.776374,23.0455887 L309.713115,22.9827361 C309.204865,22.4777475 308.695524,21.9716752 308.122924,21.4038339 C307.933148,21.2141923 307.742281,21.023467 307.551415,20.834909 C307.360548,20.6452674 307.106423,20.3288367 307.106423,19.9506371 C307.106423,19.6342065 307.360548,19.2549232 307.551415,19.0652816 L309.331382,17.2967378 C309.585507,17.1070961 309.776374,16.8546018 309.967241,16.6649602 C310.348974,16.2856769 310.730707,15.9063936 311.11244,15.528194 C311.366565,15.274616 311.620691,15.0849744 312.002424,15.0849744 C312.384157,15.0849744 312.702632,15.3374687 312.892407,15.528194 L315.055199,17.6760211 C315.626708,18.1810097 315.881924,18.8127873 315.944092,19.5085012 C316.0717,20.70812 315.817574,21.9088225 315.181716,23.424872 C314.164124,26.014835 312.702632,28.4790927 310.53984,31.0690557 C307.868799,34.2279436 304.689507,36.6922013 301.065223,38.4618288 C299.793506,39.0936064 298.013539,39.8510893 296.105963,39.9778783 L295.787489,39.9778783 C294.834246,39.9778783 294.134039,39.6625313 293.49818,39.0307537 C293.053188,38.5875341 292.671455,38.1453982 292.226463,37.7671985 C291.972338,37.5136206 291.717122,37.2611263 291.464088,37.008632 C290.891488,36.3768544 290.891488,35.7450768 291.464088,35.1761519 M290.000414,38.3350398 C290.25563,38.5875341 290.574104,38.9039647 290.828229,39.156459 C291.27213,39.5357423 291.654954,39.9150256 291.972338,40.2943089 L292.035597,40.3571615 C293.053188,41.4310751 294.324905,42 295.850747,42 L296.29683,42 C298.521789,41.8103584 300.556972,40.9889391 302.019556,40.2943089 C305.961223,38.3989761 309.331382,35.7450768 312.19329,32.3965472 C314.545858,29.6169426 316.134958,27.0269796 317.153641,24.1195023 C317.597542,22.9827361 318.106883,21.2141923 317.980366,19.3188595 C317.851667,18.118157 317.344507,17.0442435 316.517782,16.2228243 L314.291732,14.0110609 C313.591525,13.3164306 312.829149,13 312.002424,13 C311.175699,13 310.348974,13.3792833 309.713115,14.0110609 C309.331382,14.3903442 308.887481,14.8324801 308.504657,15.2117634 C308.313791,15.4642577 308.122924,15.6538993 307.933148,15.843541 L306.15209,17.6120848 C305.452973,18.3077987 305.07124,19.1292179 305.07124,19.9506371 C305.07124,20.7720564 305.452973,21.5923919 306.15209,22.2870222 C306.344047,22.4777475 306.533823,22.6673891 306.72469,22.8559471 C307.169682,23.2991667 307.615764,23.8041553 308.122924,24.2462912 C307.80554,25.0048578 307.23294,25.8891297 306.470565,26.8362543 C304.817115,28.858376 303.100406,30.4372781 301.192831,31.6379806 C301.001964,31.7647696 300.811097,31.8276223 300.556972,31.9544113 C300.429364,32.0172639 300.302847,32.0812003 300.175239,32.1440529 L298.140056,30.1219312 C297.504197,29.4901536 296.677472,29.1108703 295.850747,29.1108703 C295.025113,29.1108703 294.198388,29.4901536 293.56253,30.1858675 L290.000414,33.722955 C288.666529,35.0504465 288.666529,36.9457793 290.000414,38.3350398" id="Fill-65" fill="#FFFFFF" mask="url(#mask-6)"></path>
                <path d="M367,113.5 C367,127.583059 378.416941,139 392.5,139 C406.584179,139 418,127.583059 418,113.5 C418,99.4169411 406.584179,88 392.5,88 C378.416941,88 367,99.4169411 367,113.5" id="Fill-66" fill="#9267DC" mask="url(#mask-6)"></path>
                <path d="M381.117793,119.913701 L402.882207,119.913701 L402.882207,106.086299 L381.117793,106.086299 L381.117793,119.913701 Z M380,120.456851 L380,105.543149 C380,105.243217 380.250269,105 380.558896,105 L403.441104,105 C403.749731,105 404,105.243217 404,105.543149 L404,120.456851 C404,120.756783 403.749731,121 403.441104,121 L380.558896,121 C380.250269,121 380,120.756783 380,120.456851 L380,120.456851 Z" id="Fill-67" fill="#FFFFFF" mask="url(#mask-6)"></path>
                <path d="M392,116 C392.122326,116 392.244652,115.960133 392.346778,115.881507 L403.787069,106.98454 C404.029477,106.795172 404.071,106.448552 403.880217,106.210458 C403.687188,105.971256 403.337044,105.931389 403.094636,106.118542 L392,114.746407 L380.905364,106.118542 C380.662956,105.930282 380.312812,105.970149 380.119783,106.210458 C379.929,106.448552 379.970523,106.795172 380.212931,106.98454 L391.653222,115.881507 C391.755348,115.960133 391.877674,116 392,116" id="Fill-68" fill="#FFFFFF" mask="url(#mask-6)"></path>
                <path d="M13.2582767,145 L95.7417233,145 C96.9890787,145 98,144.104697 98,143 C98,141.895303 96.9890787,141 95.7417233,141 L13.2582767,141 C12.0109213,141 11,141.895303 11,143 C11,144.104697 12.0109213,145 13.2582767,145" id="Fill-69" fill="#FFD9C4" mask="url(#mask-6)"></path>
                <path d="M186.257198,28 L223.743907,28 C224.989562,28 226,27.1046967 226,26 C226,24.8953033 224.989562,24 223.743907,24 L186.257198,24 C185.010438,24 184,24.8953033 184,26 C184,27.1046967 185.010438,28 186.257198,28" id="Fill-70" fill="#FFD9C4" mask="url(#mask-6)"></path>
                <path d="M393.143831,181 L417.856169,181 C419.039662,181 420,181.845401 420,182.889432 L420,183.109589 C420,184.15362 419.039662,185 417.856169,185 L393.143831,185 C391.960338,185 391,184.15362 391,183.109589 L391,182.889432 C391,181.845401 391.960338,181 393.143831,181" id="Fill-71" fill="#BDB6C9" mask="url(#mask-6)"></path>
                <path d="M24.7065613,72 L28.2934387,72 C29.2352569,72 30,71.2115573 30,70.238002 L30,66.761998 C30,65.7884427 29.2352569,65 28.2934387,65 L24.7065613,65 C23.7636364,65 23,65.7884427 23,66.761998 L23,70.238002 C23,71.2115573 23.7636364,72 24.7065613,72" id="Fill-72" fill="#FF5900" mask="url(#mask-6)"></path>
                <path d="M375.194677,224 L379.805323,224 C381.017069,224 382,222.985088 382,221.733917 L382,217.264974 C382,216.013803 381.017069,215 379.805323,215 L375.194677,215 C373.982931,215 373,216.013803 373,217.264974 L373,221.733917 C373,222.985088 373.982931,224 375.194677,224" id="Fill-73" fill="#FF5900" mask="url(#mask-6)"></path>
                <path d="M109.289535,28.0913721 C108.668605,28.0913721 108.162791,28.5759413 108.162791,29.1707391 L108.162791,37.6474262 C108.162791,38.2433153 108.668605,38.7278846 109.289535,38.7278846 L119.003488,38.7278846 L123.853488,42.6273571 L123.853488,38.9832656 L127.732558,38.8795853 C128.34186,38.8675802 128.837209,38.3841023 128.837209,37.7991269 L128.837209,29.1707391 C128.837209,28.5759413 128.331395,28.0913721 127.710465,28.0913721 L109.289535,28.0913721 Z M118.574419,39.8192567 L109.289535,39.8192567 C108.026744,39.8192567 107,38.8446614 107,37.6474262 L107,29.1707391 C107,27.9745953 108.026744,27 109.289535,27 L127.710465,27 C128.973256,27 130,27.9745953 130,29.1707391 L130,37.7991269 C130,38.9734433 128.993023,39.9469472 127.761628,39.9709574 L125.016279,40.0440793 L125.016279,45 L118.574419,39.8192567 Z" id="Fill-74" fill="#FFD9C4" mask="url(#mask-6)"></path>
                <path d="M8.13207547,183.000559 C8.13207547,185.692315 10.3158491,187.882161 13,187.882161 C15.6841509,187.882161 17.8679245,185.692315 17.8679245,183.000559 C17.8679245,180.308803 15.6841509,178.117839 13,178.117839 C10.3158491,178.117839 8.13207547,180.308803 8.13207547,183.000559 M7,183.000559 C7,179.691756 9.69207547,177 13,177 C16.3079245,177 19,179.691756 19,183.000559 C19,186.308244 16.3079245,189 13,189 C9.69207547,189 7,186.308244 7,183.000559" id="Fill-75" fill="#FFD9C4" mask="url(#mask-6)"></path>
                <path d="M321.132075,96.9994411 C321.132075,99.691197 323.315849,101.882161 326,101.882161 C328.684151,101.882161 330.867925,99.691197 330.867925,96.9994411 C330.867925,94.3076851 328.684151,92.1178388 326,92.1178388 C323.315849,92.1178388 321.132075,94.3076851 321.132075,96.9994411 M320,96.9994411 C320,93.6917559 322.692075,91 326,91 C329.307925,91 332,93.6917559 332,96.9994411 C332,100.308244 329.307925,103 326,103 C322.692075,103 320,100.308244 320,96.9994411" id="Fill-76" fill="#FFD9C4" mask="url(#mask-6)"></path>
                <path d="M193.232827,102.180622 L191.055334,114.595155 C191.055334,114.595155 190.46752,116.036906 193.123605,115.999276 C195.284219,115.968097 197,115.192928 197,115.192928 L194.336964,102 L193.232827,102.180622 Z" id="Fill-77" fill="#D8906C" mask="url(#mask-6)"></path>
            </g>
        </g>
    </g>
</svg>